<!-- Generated by IcoMoon.io -->
<svg version="1.1" xmlns="http://www.w3.org/2000/svg" width="30" height="32" viewBox="0 0 30 32">
<title>address-book-o</title>
<path d="M18.368 11.488q0 1.92-1.376 3.264t-3.264 1.376-3.296-1.376-1.344-3.264q0-1.92 1.344-3.264t3.296-1.376 3.264 1.376 1.376 3.264zM17.504 15.424q0.832 0 1.472 0.32t1.056 0.832 0.704 1.184 0.448 1.472 0.192 1.472 0.064 1.408q0 1.184-0.704 2.112t-1.888 0.928h-10.272q-1.184 0-1.888-0.928t-0.704-2.112q0-0.864 0.096-1.664t0.32-1.76 0.64-1.632 1.12-1.152 1.696-0.48h0.064q0.128 0.064 0.576 0.352t0.64 0.384 0.576 0.288 0.672 0.288 0.64 0.16 0.704 0.096 0.704-0.096 0.608-0.16 0.672-0.288 0.576-0.288 0.64-0.384 0.576-0.352zM29.728 10.848q0 0.224-0.192 0.416t-0.384 0.16h-1.728v2.304h1.728q0.224 0 0.384 0.16t0.192 0.384v3.456q0 0.224-0.192 0.384t-0.384 0.16h-1.728v2.304h1.728q0.224 0 0.384 0.16t0.192 0.416v3.424q0 0.224-0.192 0.384t-0.384 0.192h-1.728v4q0 1.184-0.832 2.016t-2.016 0.832h-21.728q-1.152 0-2.016-0.832t-0.832-2.016v-26.304q0-1.184 0.832-2.016t2.016-0.832h21.728q1.184 0 2.016 0.832t0.832 2.016v4h1.728q0.224 0 0.384 0.192t0.192 0.384v3.424zM25.152 29.152v-26.304q0-0.224-0.192-0.384t-0.384-0.192h-21.728q-0.224 0-0.384 0.192t-0.192 0.384v26.304q0 0.224 0.192 0.384t0.384 0.192h21.728q0.224 0 0.384-0.192t0.192-0.384z"></path>
</svg>
