<!-- Generated by IcoMoon.io -->
<svg version="1.1" xmlns="http://www.w3.org/2000/svg" width="37" height="32" viewBox="0 0 37 32">
<title>bed</title>
<path d="M4.576 18.272h30.848q0.48 0 0.8 0.352t0.352 0.8v8h-4.576v-4.576h-27.424v4.576h-4.576v-21.696q0-0.48 0.352-0.832t0.8-0.32h2.272q0.48 0 0.8 0.32t0.352 0.832v12.544zM14.848 12.576q0-1.888-1.344-3.232t-3.232-1.344-3.232 1.344-1.312 3.232 1.312 3.232 3.232 1.344 3.232-1.344 1.344-3.232zM36.576 17.152v-1.152q0-2.848-2.016-4.864t-4.832-1.984h-12.576q-0.48 0-0.8 0.32t-0.352 0.8v6.88h20.576z"></path>
</svg>
