<!-- Generated by IcoMoon.io -->
<svg version="1.1" xmlns="http://www.w3.org/2000/svg" width="27" height="32" viewBox="0 0 27 32">
<title>bus</title>
<path d="M6.848 21.728q0-0.96-0.672-1.632t-1.6-0.672-1.632 0.672-0.672 1.632 0.672 1.6 1.632 0.672 1.6-0.672 0.672-1.6zM25.152 21.728q0-0.96-0.672-1.632t-1.632-0.672-1.6 0.672-0.672 1.632 0.672 1.6 1.6 0.672 1.632-0.672 0.672-1.6zM24.32 14.656l-1.28-6.88q-0.096-0.416-0.416-0.672t-0.704-0.256h-16.416q-0.384 0-0.704 0.256t-0.416 0.672l-1.28 6.88q-0.096 0.512 0.256 0.928t0.864 0.416h18.976q0.544 0 0.864-0.416t0.256-0.928zM20.288 3.712q0-0.352-0.256-0.608t-0.608-0.256h-11.424q-0.352 0-0.608 0.256t-0.256 0.608 0.256 0.608 0.608 0.256h11.424q0.352 0 0.608-0.256t0.256-0.608zM27.424 16.672v10.752h-2.272v2.304q0 0.928-0.672 1.6t-1.632 0.672-1.6-0.672-0.672-1.6v-2.304h-13.728v2.304q0 0.928-0.672 1.6t-1.6 0.672-1.632-0.672-0.672-1.6v-2.304h-2.272v-10.752q0-2.016 0.448-4l1.824-8.096q0.192-1.408 1.76-2.464t4.096-1.568 5.6-0.544 5.568 0.544 4.096 1.568 1.76 2.464l1.856 8.096q0.416 1.824 0.416 4z"></path>
</svg>
