<!-- Generated by IcoMoon.io -->
<svg version="1.1" xmlns="http://www.w3.org/2000/svg" width="23" height="32" viewBox="0 0 23 32">
<title>child</title>
<path d="M21.216 9.792l-5.216 5.216v14.72q0 0.8-0.576 1.408t-1.408 0.576-1.44-0.576-0.576-1.408v-6.88h-1.152v6.88q0 0.8-0.576 1.408t-1.408 0.576-1.408-0.576-0.608-1.408v-14.72l-5.216-5.216q-0.48-0.512-0.48-1.216t0.48-1.216q0.544-0.512 1.248-0.512t1.184 0.512l4.096 4.064h6.56l4.064-4.064q0.512-0.512 1.216-0.512t1.216 0.512 0.512 1.216-0.512 1.216zM15.424 6.848q0 1.664-1.152 2.848t-2.848 1.152-2.816-1.152-1.184-2.848 1.184-2.816 2.816-1.184 2.848 1.184 1.152 2.816z"></path>
</svg>
