<!-- Generated by IcoMoon.io -->
<svg version="1.1" xmlns="http://www.w3.org/2000/svg" width="25" height="32" viewBox="0 0 25 32">
<title>food</title>
<path d="M11.424 1.152v11.424q0 1.088-0.64 1.984t-1.632 1.248v13.92q0 0.928-0.672 1.6t-1.632 0.672h-2.272q-0.928 0-1.6-0.672t-0.704-1.6v-13.92q-0.992-0.352-1.632-1.248t-0.64-1.984v-11.424q0-0.48 0.352-0.8t0.8-0.352 0.8 0.352 0.32 0.8v7.424q0 0.448 0.352 0.8t0.8 0.352 0.8-0.352 0.352-0.8v-7.424q0-0.48 0.352-0.8t0.8-0.352 0.8 0.352 0.32 0.8v7.424q0 0.448 0.352 0.8t0.8 0.352 0.8-0.352 0.352-0.8v-7.424q0-0.48 0.32-0.8t0.8-0.352 0.832 0.352 0.32 0.8zM25.152 1.152v28.576q0 0.928-0.672 1.6t-1.632 0.672h-2.272q-0.928 0-1.6-0.672t-0.704-1.6v-9.152h-4q-0.224 0-0.384-0.16t-0.16-0.416v-14.272q0-2.368 1.664-4.064t4.032-1.664h4.576q0.48 0 0.8 0.352t0.352 0.8z"></path>
</svg>
