<!-- Generated by IcoMoon.io -->
<svg version="1.1" xmlns="http://www.w3.org/2000/svg" width="37" height="32" viewBox="0 0 37 32">
<title>map-o</title>
<path d="M36.064 0.192q0.512 0.352 0.512 0.96v25.12q0 0.384-0.192 0.64t-0.512 0.416l-11.456 4.576q-0.416 0.192-0.832 0l-11.008-4.384-11.008 4.384q-0.16 0.096-0.416 0.096-0.352 0-0.64-0.192-0.512-0.352-0.512-0.96v-25.12q0-0.384 0.192-0.672t0.512-0.384l11.456-4.576q0.416-0.192 0.832 0l11.008 4.384 11.008-4.384q0.576-0.256 1.056 0.096zM13.152 2.592v22.688l10.272 4.128v-22.688zM2.272 6.496v22.656l9.728-3.872v-22.688zM34.272 25.504v-22.656l-9.696 3.872v22.688z"></path>
</svg>
