<!-- Generated by IcoMoon.io -->
<svg version="1.1" xmlns="http://www.w3.org/2000/svg" width="27" height="32" viewBox="0 0 27 32">
<title>off</title>
<path d="M27.424 16q0 2.784-1.088 5.312t-2.912 4.384-4.384 2.944-5.312 1.088-5.344-1.088-4.352-2.944-2.944-4.384-1.088-5.312q0-3.264 1.44-6.112t4.032-4.832q0.768-0.576 1.728-0.448t1.472 0.896q0.576 0.736 0.448 1.696t-0.896 1.504q-1.728 1.312-2.688 3.232t-0.96 4.064q0 1.856 0.736 3.552t1.952 2.912 2.912 1.952 3.552 0.736 3.52-0.736 2.944-1.952 1.952-2.912 0.704-3.552q0-2.176-0.96-4.064t-2.688-3.232q-0.736-0.576-0.896-1.504t0.448-1.696q0.544-0.768 1.504-0.896t1.696 0.448q2.592 1.952 4.032 4.832t1.44 6.112zM16 2.272v11.456q0 0.928-0.672 1.6t-1.6 0.672-1.632-0.672-0.672-1.6v-11.456q0-0.928 0.672-1.6t1.632-0.672 1.6 0.672 0.672 1.6z"></path>
</svg>
