<!-- Generated by IcoMoon.io -->
<svg version="1.1" xmlns="http://www.w3.org/2000/svg" width="16" height="32" viewBox="0 0 16 32">
<title>rupee</title>
<path d="M16.032 8.384v1.824q0 0.256-0.16 0.416t-0.416 0.16h-2.976q-0.416 2.56-2.304 4.192t-4.928 1.952q2.976 3.168 8.192 9.568 0.256 0.288 0.064 0.608-0.16 0.32-0.512 0.32h-3.488q-0.288 0-0.448-0.224-5.472-6.528-8.896-10.176-0.16-0.16-0.16-0.416v-2.24q0-0.256 0.16-0.416t0.416-0.16h1.984q2.368 0 3.808-0.768t1.824-2.24h-7.616q-0.256 0-0.416-0.16t-0.16-0.416v-1.824q0-0.256 0.16-0.416t0.416-0.16h7.36q-0.992-2.016-4.768-2.016h-2.592q-0.224 0-0.416-0.16t-0.16-0.416v-2.368q0-0.256 0.16-0.416t0.416-0.16h14.848q0.256 0 0.416 0.16t0.16 0.416v1.824q0 0.256-0.16 0.416t-0.416 0.16h-4.16q0.832 1.088 1.152 2.56h3.040q0.256 0 0.416 0.16t0.16 0.416z"></path>
</svg>
